<svg width="284" height="78" viewBox="0 0 284 78" fill="none" xmlns="http://www.w3.org/2000/svg">
<rect x="0.5" y="0.5" width="283" height="77" rx="38.5" fill="#FFCF88"/>
<path d="M20.7 46V31.8H31.66V46H29.86V33.4H22.5V46H20.7ZM39.3955 46.2C38.6088 46.2 37.8888 46.06 37.2355 45.78C36.5955 45.4867 36.0355 45.0933 35.5555 44.6C35.0888 44.0933 34.7221 43.5133 34.4555 42.86C34.2021 42.2067 34.0755 41.5133 34.0755 40.78C34.0755 39.7933 34.3021 38.8933 34.7555 38.08C35.2088 37.2667 35.8355 36.6133 36.6355 36.12C37.4488 35.6267 38.3755 35.38 39.4155 35.38C40.4688 35.38 41.3821 35.6333 42.1555 36.14C42.9421 36.6333 43.5488 37.2867 43.9755 38.1C44.4155 38.9 44.6355 39.7667 44.6355 40.7C44.6355 40.8333 44.6288 40.9667 44.6155 41.1C44.6155 41.22 44.6088 41.3133 44.5955 41.38H35.9355C35.9888 42.06 36.1755 42.6667 36.4955 43.2C36.8288 43.72 37.2555 44.1333 37.7755 44.44C38.2955 44.7333 38.8555 44.88 39.4555 44.88C40.0955 44.88 40.6955 44.72 41.2555 44.4C41.8288 44.08 42.2221 43.66 42.4355 43.14L43.9555 43.56C43.7288 44.0667 43.3888 44.52 42.9355 44.92C42.4955 45.32 41.9688 45.6333 41.3555 45.86C40.7555 46.0867 40.1021 46.2 39.3955 46.2ZM35.8755 40.16H42.9955C42.9421 39.48 42.7488 38.88 42.4155 38.36C42.0821 37.84 41.6555 37.4333 41.1355 37.14C40.6155 36.8467 40.0421 36.7 39.4155 36.7C38.8021 36.7 38.2355 36.8467 37.7155 37.14C37.1955 37.4333 36.7688 37.84 36.4355 38.36C36.1155 38.88 35.9288 39.48 35.8755 40.16ZM52.2119 46.2C51.3585 46.2 50.5985 45.9867 49.9319 45.56C49.2652 45.1333 48.7385 44.5933 48.3519 43.94V50.26H46.5919V35.56H48.1519V37.52C48.5652 36.88 49.1052 36.3667 49.7719 35.98C50.4385 35.58 51.1652 35.38 51.9519 35.38C52.6719 35.38 53.3319 35.5267 53.9319 35.82C54.5319 36.1133 55.0519 36.5133 55.4919 37.02C55.9319 37.5267 56.2719 38.1067 56.5119 38.76C56.7652 39.4 56.8919 40.0733 56.8919 40.78C56.8919 41.7667 56.6919 42.6733 56.2919 43.5C55.9052 44.3267 55.3585 44.9867 54.6519 45.48C53.9452 45.96 53.1319 46.2 52.2119 46.2ZM51.6719 44.68C52.1919 44.68 52.6585 44.5733 53.0719 44.36C53.4985 44.1333 53.8585 43.84 54.1519 43.48C54.4585 43.1067 54.6919 42.6867 54.8519 42.22C55.0119 41.7533 55.0919 41.2733 55.0919 40.78C55.0919 40.26 54.9985 39.7667 54.8119 39.3C54.6385 38.8333 54.3852 38.42 54.0519 38.06C53.7319 37.7 53.3519 37.42 52.9119 37.22C52.4852 37.0067 52.0185 36.9 51.5119 36.9C51.1919 36.9 50.8585 36.96 50.5119 37.08C50.1785 37.2 49.8585 37.3733 49.5519 37.6C49.2452 37.8133 48.9852 38.06 48.7719 38.34C48.5585 38.62 48.4185 38.92 48.3519 39.24V42.22C48.5519 42.6733 48.8185 43.0867 49.1519 43.46C49.4852 43.8333 49.8719 44.1333 50.3119 44.36C50.7519 44.5733 51.2052 44.68 51.6719 44.68ZM63.6728 46.2C62.8861 46.2 62.1661 46.06 61.5128 45.78C60.8728 45.4867 60.3128 45.0933 59.8328 44.6C59.3661 44.0933 58.9995 43.5133 58.7328 42.86C58.4795 42.2067 58.3528 41.5133 58.3528 40.78C58.3528 39.7933 58.5795 38.8933 59.0328 38.08C59.4861 37.2667 60.1128 36.6133 60.9128 36.12C61.7261 35.6267 62.6528 35.38 63.6928 35.38C64.7461 35.38 65.6595 35.6333 66.4328 36.14C67.2195 36.6333 67.8261 37.2867 68.2528 38.1C68.6928 38.9 68.9128 39.7667 68.9128 40.7C68.9128 40.8333 68.9061 40.9667 68.8928 41.1C68.8928 41.22 68.8861 41.3133 68.8728 41.38H60.2128C60.2661 42.06 60.4528 42.6667 60.7728 43.2C61.1061 43.72 61.5328 44.1333 62.0528 44.44C62.5728 44.7333 63.1328 44.88 63.7328 44.88C64.3728 44.88 64.9728 44.72 65.5328 44.4C66.1061 44.08 66.4995 43.66 66.7128 43.14L68.2328 43.56C68.0061 44.0667 67.6661 44.52 67.2128 44.92C66.7728 45.32 66.2461 45.6333 65.6328 45.86C65.0328 46.0867 64.3795 46.2 63.6728 46.2ZM60.1528 40.16H67.2728C67.2195 39.48 67.0261 38.88 66.6928 38.36C66.3595 37.84 65.9328 37.4333 65.4128 37.14C64.8928 36.8467 64.3195 36.7 63.6928 36.7C63.0795 36.7 62.5128 36.8467 61.9928 37.14C61.4728 37.4333 61.0461 37.84 60.7128 38.36C60.3928 38.88 60.2061 39.48 60.1528 40.16ZM70.8492 46V35.58H72.6092V43.64L78.4492 35.56H80.0492V46H78.2892V38.1L72.5292 46H70.8492ZM75.4692 34.38C74.5092 34.38 73.7826 34.1533 73.2892 33.7C72.7959 33.2333 72.5492 32.66 72.5492 31.98H73.7892C73.7892 32.3533 73.9159 32.6667 74.1692 32.92C74.4359 33.16 74.8692 33.28 75.4692 33.28C76.0559 33.28 76.4692 33.1667 76.7092 32.94C76.9492 32.7 77.0959 32.38 77.1492 31.98H78.3892C78.3892 32.66 78.1426 33.2333 77.6492 33.7C77.1559 34.1533 76.4292 34.38 75.4692 34.38ZM85.4014 46V37.12H81.8014V35.56H90.7614V37.12H87.1614V46H85.4014ZM92.5094 46V35.58H94.2694V43.64L100.109 35.56H101.709V46H99.9494V38.1L94.1894 46H92.5094ZM109.56 46V35.56H114.96C115.587 35.56 116.107 35.6867 116.52 35.94C116.933 36.18 117.24 36.4933 117.44 36.88C117.653 37.2667 117.76 37.68 117.76 38.12C117.76 38.68 117.627 39.1867 117.36 39.64C117.093 40.08 116.707 40.4133 116.2 40.64C116.8 40.8133 117.287 41.1267 117.66 41.58C118.033 42.02 118.22 42.5667 118.22 43.22C118.22 43.8067 118.08 44.3067 117.8 44.72C117.52 45.1333 117.127 45.4533 116.62 45.68C116.113 45.8933 115.527 46 114.86 46H109.56ZM111.24 44.76H114.82C115.14 44.76 115.427 44.68 115.68 44.52C115.947 44.36 116.153 44.1467 116.3 43.88C116.447 43.6133 116.52 43.3333 116.52 43.04C116.52 42.72 116.447 42.4333 116.3 42.18C116.167 41.9133 115.973 41.7067 115.72 41.56C115.48 41.4 115.2 41.32 114.88 41.32H111.24V44.76ZM111.24 40.16H114.5C114.82 40.16 115.1 40.08 115.34 39.92C115.58 39.7467 115.767 39.5267 115.9 39.26C116.033 38.9933 116.1 38.7133 116.1 38.42C116.1 37.98 115.953 37.6 115.66 37.28C115.38 36.96 115.013 36.8 114.56 36.8H111.24V40.16ZM135.432 33.4H130.532V46H128.732V33.4H123.832V31.8H135.432V33.4ZM139.591 46.2C138.804 46.2 138.084 46.06 137.431 45.78C136.791 45.4867 136.231 45.0933 135.751 44.6C135.284 44.0933 134.917 43.5133 134.651 42.86C134.397 42.2067 134.271 41.5133 134.271 40.78C134.271 39.7933 134.497 38.8933 134.951 38.08C135.404 37.2667 136.031 36.6133 136.831 36.12C137.644 35.6267 138.571 35.38 139.611 35.38C140.664 35.38 141.577 35.6333 142.351 36.14C143.137 36.6333 143.744 37.2867 144.171 38.1C144.611 38.9 144.831 39.7667 144.831 40.7C144.831 40.8333 144.824 40.9667 144.811 41.1C144.811 41.22 144.804 41.3133 144.791 41.38H136.131C136.184 42.06 136.371 42.6667 136.691 43.2C137.024 43.72 137.451 44.1333 137.971 44.44C138.491 44.7333 139.051 44.88 139.651 44.88C140.291 44.88 140.891 44.72 141.451 44.4C142.024 44.08 142.417 43.66 142.631 43.14L144.151 43.56C143.924 44.0667 143.584 44.52 143.131 44.92C142.691 45.32 142.164 45.6333 141.551 45.86C140.951 46.0867 140.297 46.2 139.591 46.2ZM136.071 40.16H143.191C143.137 39.48 142.944 38.88 142.611 38.36C142.277 37.84 141.851 37.4333 141.331 37.14C140.811 36.8467 140.237 36.7 139.611 36.7C138.997 36.7 138.431 36.8467 137.911 37.14C137.391 37.4333 136.964 37.84 136.631 38.36C136.311 38.88 136.124 39.48 136.071 40.16ZM146.827 31.4H148.587V43.3C148.587 43.8733 148.667 44.2267 148.827 44.36C148.987 44.4933 149.181 44.56 149.407 44.56C149.687 44.56 149.954 44.5333 150.207 44.48C150.461 44.4133 150.674 44.3467 150.847 44.28L151.127 45.72C150.834 45.84 150.487 45.94 150.087 46.02C149.687 46.1 149.334 46.14 149.027 46.14C148.347 46.14 147.807 45.9467 147.407 45.56C147.021 45.1733 146.827 44.6333 146.827 43.94V31.4ZM157.13 46.2C156.343 46.2 155.623 46.06 154.97 45.78C154.33 45.4867 153.77 45.0933 153.29 44.6C152.823 44.0933 152.457 43.5133 152.19 42.86C151.937 42.2067 151.81 41.5133 151.81 40.78C151.81 39.7933 152.037 38.8933 152.49 38.08C152.943 37.2667 153.57 36.6133 154.37 36.12C155.183 35.6267 156.11 35.38 157.15 35.38C158.203 35.38 159.117 35.6333 159.89 36.14C160.677 36.6333 161.283 37.2867 161.71 38.1C162.15 38.9 162.37 39.7667 162.37 40.7C162.37 40.8333 162.363 40.9667 162.35 41.1C162.35 41.22 162.343 41.3133 162.33 41.38H153.67C153.723 42.06 153.91 42.6667 154.23 43.2C154.563 43.72 154.99 44.1333 155.51 44.44C156.03 44.7333 156.59 44.88 157.19 44.88C157.83 44.88 158.43 44.72 158.99 44.4C159.563 44.08 159.957 43.66 160.17 43.14L161.69 43.56C161.463 44.0667 161.123 44.52 160.67 44.92C160.23 45.32 159.703 45.6333 159.09 45.86C158.49 46.0867 157.837 46.2 157.13 46.2ZM153.61 40.16H160.73C160.677 39.48 160.483 38.88 160.15 38.36C159.817 37.84 159.39 37.4333 158.87 37.14C158.35 36.8467 157.777 36.7 157.15 36.7C156.537 36.7 155.97 36.8467 155.45 37.14C154.93 37.4333 154.503 37.84 154.17 38.36C153.85 38.88 153.663 39.48 153.61 40.16ZM168.486 46.12C167.78 46.12 167.126 45.98 166.526 45.7C165.94 45.4067 165.433 45.0133 165.006 44.52C164.58 44.0133 164.246 43.44 164.006 42.8C163.78 42.16 163.666 41.4933 163.666 40.8C163.666 40.0667 163.78 39.3733 164.006 38.72C164.246 38.0667 164.58 37.4933 165.006 37C165.446 36.4933 165.96 36.1 166.546 35.82C167.133 35.5267 167.786 35.38 168.506 35.38C169.373 35.38 170.126 35.5933 170.766 36.02C171.42 36.4467 171.966 36.9867 172.406 37.64V35.56H173.966V45.88C173.966 46.8667 173.726 47.7 173.246 48.38C172.78 49.06 172.14 49.5733 171.326 49.92C170.526 50.28 169.633 50.46 168.646 50.46C167.473 50.46 166.513 50.2533 165.766 49.84C165.02 49.4267 164.4 48.8667 163.906 48.16L164.926 47.26C165.34 47.8733 165.873 48.3333 166.526 48.64C167.193 48.9467 167.9 49.1 168.646 49.1C169.286 49.1 169.873 48.98 170.406 48.74C170.953 48.5133 171.386 48.16 171.706 47.68C172.04 47.2 172.206 46.6 172.206 45.88V44.04C171.82 44.68 171.286 45.1867 170.606 45.56C169.94 45.9333 169.233 46.12 168.486 46.12ZM169.026 44.68C169.4 44.68 169.76 44.6133 170.106 44.48C170.453 44.3467 170.773 44.1733 171.066 43.96C171.36 43.7333 171.606 43.48 171.806 43.2C172.006 42.92 172.14 42.6333 172.206 42.34V39.34C172.02 38.86 171.753 38.44 171.406 38.08C171.06 37.7067 170.666 37.42 170.226 37.22C169.786 37.0067 169.333 36.9 168.866 36.9C168.333 36.9 167.853 37.0133 167.426 37.24C167.013 37.4667 166.66 37.7733 166.366 38.16C166.073 38.5333 165.846 38.9533 165.686 39.42C165.526 39.8867 165.446 40.36 165.446 40.84C165.446 41.36 165.54 41.8533 165.726 42.32C165.913 42.7733 166.166 43.18 166.486 43.54C166.806 43.9 167.186 44.18 167.626 44.38C168.066 44.58 168.533 44.68 169.026 44.68ZM182.327 37.1C181.447 37.1133 180.667 37.34 179.987 37.78C179.32 38.2067 178.847 38.8 178.567 39.56V46H176.807V35.56H178.447V37.98C178.807 37.26 179.28 36.68 179.867 36.24C180.467 35.7867 181.093 35.5333 181.747 35.48C181.88 35.48 181.993 35.48 182.087 35.48C182.18 35.48 182.26 35.4867 182.327 35.5V37.1ZM183.252 42.98C183.252 42.3133 183.439 41.74 183.812 41.26C184.199 40.7667 184.726 40.3867 185.392 40.12C186.059 39.8533 186.832 39.72 187.712 39.72C188.179 39.72 188.672 39.76 189.192 39.84C189.712 39.9067 190.172 40.0133 190.572 40.16V39.4C190.572 38.6 190.332 37.9733 189.852 37.52C189.372 37.0533 188.692 36.82 187.812 36.82C187.239 36.82 186.686 36.9267 186.152 37.14C185.632 37.34 185.079 37.6333 184.492 38.02L183.852 36.78C184.532 36.3133 185.212 35.9667 185.892 35.74C186.572 35.5 187.279 35.38 188.012 35.38C189.346 35.38 190.399 35.7533 191.172 36.5C191.946 37.2333 192.332 38.26 192.332 39.58V44C192.332 44.2133 192.372 44.3733 192.452 44.48C192.546 44.5733 192.692 44.6267 192.892 44.64V46C192.719 46.0267 192.566 46.0467 192.432 46.06C192.312 46.0733 192.212 46.08 192.132 46.08C191.719 46.08 191.406 45.9667 191.192 45.74C190.992 45.5133 190.879 45.2733 190.852 45.02L190.812 44.36C190.359 44.9467 189.766 45.4 189.032 45.72C188.299 46.04 187.572 46.2 186.852 46.2C186.159 46.2 185.539 46.06 184.992 45.78C184.446 45.4867 184.019 45.1 183.712 44.62C183.406 44.1267 183.252 43.58 183.252 42.98ZM190.052 43.72C190.212 43.5333 190.339 43.3467 190.432 43.16C190.526 42.96 190.572 42.7933 190.572 42.66V41.36C190.159 41.2 189.726 41.08 189.272 41C188.819 40.9067 188.372 40.86 187.932 40.86C187.039 40.86 186.312 41.04 185.752 41.4C185.206 41.7467 184.932 42.2267 184.932 42.84C184.932 43.1733 185.019 43.5 185.192 43.82C185.379 44.1267 185.646 44.38 185.992 44.58C186.352 44.78 186.792 44.88 187.312 44.88C187.859 44.88 188.379 44.7733 188.872 44.56C189.366 44.3333 189.759 44.0533 190.052 43.72ZM210.887 46H209.127V40.16C209.127 39.0667 208.947 38.26 208.587 37.74C208.24 37.22 207.72 36.96 207.027 36.96C206.32 36.96 205.68 37.22 205.107 37.74C204.533 38.2467 204.127 38.9067 203.887 39.72V46H202.127V40.16C202.127 39.0533 201.953 38.2467 201.607 37.74C201.26 37.22 200.74 36.96 200.047 36.96C199.353 36.96 198.713 37.2133 198.127 37.72C197.553 38.2133 197.147 38.8733 196.907 39.7V46H195.147V35.56H196.747V37.8C197.173 37.0267 197.727 36.4333 198.407 36.02C199.087 35.5933 199.853 35.38 200.707 35.38C201.573 35.38 202.267 35.62 202.787 36.1C203.307 36.5667 203.627 37.1733 203.747 37.92C204.213 37.0933 204.78 36.4667 205.447 36.04C206.113 35.6 206.873 35.38 207.727 35.38C208.327 35.38 208.827 35.4933 209.227 35.72C209.64 35.9333 209.967 36.24 210.207 36.64C210.447 37.0267 210.62 37.4867 210.727 38.02C210.833 38.5533 210.887 39.1333 210.887 39.76V46ZM213.483 41.34V39.74H219.383V41.34H213.483ZM227 46.2C225.28 46.2 223.98 45.68 223.1 44.64C222.22 43.6 221.78 42.1333 221.78 40.24C221.78 38.9467 221.887 37.86 222.1 36.98C222.313 36.0867 222.633 35.3533 223.06 34.78C223.487 34.1933 224.013 33.72 224.64 33.36C225.267 32.9867 225.987 32.68 226.8 32.44L231.22 31.1L231.32 32.62L227.02 33.92C226.287 34.16 225.673 34.4667 225.18 34.84C224.687 35.2133 224.3 35.6933 224.02 36.28C223.74 36.8667 223.553 37.62 223.46 38.54C223.807 37.8333 224.327 37.2867 225.02 36.9C225.713 36.5 226.52 36.3 227.44 36.3C228.427 36.3 229.273 36.5067 229.98 36.92C230.7 37.32 231.247 37.8867 231.62 38.62C232.007 39.34 232.2 40.1733 232.2 41.12C232.2 42.1333 232 43.02 231.6 43.78C231.2 44.54 230.613 45.1333 229.84 45.56C229.067 45.9867 228.12 46.2 227 46.2ZM227 44.68C228.08 44.68 228.913 44.3667 229.5 43.74C230.1 43.1 230.4 42.2533 230.4 41.2C230.4 40.1733 230.107 39.34 229.52 38.7C228.933 38.06 228.093 37.74 227 37.74C226.36 37.74 225.78 37.8733 225.26 38.14C224.753 38.4067 224.347 38.8 224.04 39.32C223.747 39.8267 223.6 40.4533 223.6 41.2C223.6 41.8667 223.727 42.4667 223.98 43C224.247 43.52 224.633 43.9333 225.14 44.24C225.647 44.5333 226.267 44.68 227 44.68ZM238.906 46.2C238.119 46.2 237.406 46.06 236.766 45.78C236.126 45.4867 235.572 45.0933 235.106 44.6C234.639 44.0933 234.279 43.5133 234.026 42.86C233.772 42.2067 233.646 41.52 233.646 40.8C233.646 40.0667 233.772 39.3733 234.026 38.72C234.279 38.0667 234.639 37.4933 235.106 37C235.572 36.4933 236.126 36.1 236.766 35.82C237.419 35.5267 238.132 35.38 238.906 35.38C239.692 35.38 240.406 35.5267 241.046 35.82C241.686 36.1 242.239 36.4933 242.706 37C243.186 37.4933 243.552 38.0667 243.806 38.72C244.059 39.3733 244.186 40.0667 244.186 40.8C244.186 41.52 244.059 42.2067 243.806 42.86C243.552 43.5133 243.192 44.0933 242.726 44.6C242.259 45.0933 241.699 45.4867 241.046 45.78C240.406 46.06 239.692 46.2 238.906 46.2ZM235.446 40.82C235.446 41.54 235.599 42.1933 235.906 42.78C236.226 43.3667 236.646 43.8333 237.166 44.18C237.686 44.5133 238.266 44.68 238.906 44.68C239.546 44.68 240.126 44.5067 240.646 44.16C241.179 43.8133 241.599 43.3467 241.906 42.76C242.226 42.16 242.386 41.5 242.386 40.78C242.386 40.06 242.226 39.4067 241.906 38.82C241.599 38.2333 241.179 37.7667 240.646 37.42C240.126 37.0733 239.546 36.9 238.906 36.9C238.266 36.9 237.686 37.08 237.166 37.44C236.646 37.7867 236.226 38.2533 235.906 38.84C235.599 39.4267 235.446 40.0867 235.446 40.82ZM248.858 46V37.12H245.258V35.56H254.218V37.12H250.618V46H248.858ZM255.166 42.98C255.166 42.3133 255.353 41.74 255.726 41.26C256.113 40.7667 256.64 40.3867 257.306 40.12C257.973 39.8533 258.746 39.72 259.626 39.72C260.093 39.72 260.586 39.76 261.106 39.84C261.626 39.9067 262.086 40.0133 262.486 40.16V39.4C262.486 38.6 262.246 37.9733 261.766 37.52C261.286 37.0533 260.606 36.82 259.726 36.82C259.153 36.82 258.6 36.9267 258.066 37.14C257.546 37.34 256.993 37.6333 256.406 38.02L255.766 36.78C256.446 36.3133 257.126 35.9667 257.806 35.74C258.486 35.5 259.193 35.38 259.926 35.38C261.26 35.38 262.313 35.7533 263.086 36.5C263.86 37.2333 264.246 38.26 264.246 39.58V44C264.246 44.2133 264.286 44.3733 264.366 44.48C264.46 44.5733 264.606 44.6267 264.806 44.64V46C264.633 46.0267 264.48 46.0467 264.346 46.06C264.226 46.0733 264.126 46.08 264.046 46.08C263.633 46.08 263.32 45.9667 263.106 45.74C262.906 45.5133 262.793 45.2733 262.766 45.02L262.726 44.36C262.273 44.9467 261.68 45.4 260.946 45.72C260.213 46.04 259.486 46.2 258.766 46.2C258.073 46.2 257.453 46.06 256.906 45.78C256.36 45.4867 255.933 45.1 255.626 44.62C255.32 44.1267 255.166 43.58 255.166 42.98ZM261.966 43.72C262.126 43.5333 262.253 43.3467 262.346 43.16C262.44 42.96 262.486 42.7933 262.486 42.66V41.36C262.073 41.2 261.64 41.08 261.186 41C260.733 40.9067 260.286 40.86 259.846 40.86C258.953 40.86 258.226 41.04 257.666 41.4C257.12 41.7467 256.846 42.2267 256.846 42.84C256.846 43.1733 256.933 43.5 257.106 43.82C257.293 44.1267 257.56 44.38 257.906 44.58C258.266 44.78 258.706 44.88 259.226 44.88C259.773 44.88 260.293 44.7733 260.786 44.56C261.28 44.3333 261.673 44.0533 261.966 43.72Z" fill="black"/>
<rect x="0.5" y="0.5" width="283" height="77" rx="38.5" stroke="black"/>
</svg>
