<svg width="149" height="68" viewBox="0 0 149 68" fill="none" xmlns="http://www.w3.org/2000/svg">
<path d="M47.726 48V28.772L39.784 43.364H37.276L29.296 28.772V48H25.04V21.02H29.6L38.53 37.512L47.46 21.02H52.02V48H47.726Z" fill="#FFCF88"/>
<path d="M66.4 19.6H70.64L81.68 48H76.96L73.96 40.28H63L60.04 48H55.28L66.4 19.6ZM73.08 36.96L68.52 24.52L63.8 36.96H73.08ZM93.4872 48.4C91.8605 48.4 90.3805 48.12 89.0472 47.56C87.7405 46.9733 86.6072 46.1733 85.6472 45.16C84.6872 44.1467 83.9405 42.9867 83.4072 41.68C82.9005 40.3733 82.6472 38.9867 82.6472 37.52C82.6472 35.5467 83.0872 33.7467 83.9672 32.12C84.8739 30.4933 86.1272 29.1867 87.7272 28.2C89.3539 27.2133 91.2739 26.72 93.4872 26.72C95.6205 26.72 97.4739 27.2 99.0472 28.16C100.647 29.0933 101.821 30.3467 102.567 31.92L98.2872 33.28C97.8072 32.4 97.1272 31.72 96.2472 31.24C95.3939 30.7333 94.4472 30.48 93.4072 30.48C92.2339 30.48 91.1672 30.7867 90.2072 31.4C89.2739 31.9867 88.5272 32.8133 87.9672 33.88C87.4339 34.92 87.1672 36.1333 87.1672 37.52C87.1672 38.8533 87.4472 40.0667 88.0072 41.16C88.5672 42.2267 89.3139 43.08 90.2472 43.72C91.2072 44.3333 92.2739 44.64 93.4472 44.64C94.1672 44.64 94.8605 44.52 95.5272 44.28C96.2205 44.0133 96.8205 43.6667 97.3272 43.24C97.8339 42.7867 98.1939 42.2933 98.4072 41.76L102.727 43.04C102.274 44.08 101.594 45 100.687 45.8C99.8072 46.6 98.7539 47.24 97.5272 47.72C96.3272 48.1733 94.9805 48.4 93.4872 48.4ZM115.636 48.4C114.009 48.4 112.529 48.12 111.196 47.56C109.889 46.9733 108.756 46.1733 107.796 45.16C106.836 44.1467 106.089 42.9867 105.556 41.68C105.049 40.3733 104.796 38.9867 104.796 37.52C104.796 35.5467 105.236 33.7467 106.116 32.12C107.022 30.4933 108.276 29.1867 109.876 28.2C111.502 27.2133 113.422 26.72 115.636 26.72C117.769 26.72 119.622 27.2 121.196 28.16C122.796 29.0933 123.969 30.3467 124.716 31.92L120.436 33.28C119.956 32.4 119.276 31.72 118.396 31.24C117.542 30.7333 116.596 30.48 115.556 30.48C114.382 30.48 113.316 30.7867 112.356 31.4C111.422 31.9867 110.676 32.8133 110.116 33.88C109.582 34.92 109.316 36.1333 109.316 37.52C109.316 38.8533 109.596 40.0667 110.156 41.16C110.716 42.2267 111.462 43.08 112.396 43.72C113.356 44.3333 114.422 44.64 115.596 44.64C116.316 44.64 117.009 44.52 117.676 44.28C118.369 44.0133 118.969 43.6667 119.476 43.24C119.982 42.7867 120.342 42.2933 120.556 41.76L124.876 43.04C124.422 44.08 123.742 45 122.836 45.8C121.956 46.6 120.902 47.24 119.676 47.72C118.476 48.1733 117.129 48.4 115.636 48.4Z" fill="black"/>
</svg>
